<svg xmlns="http://www.w3.org/2000/svg" viewBox="0 0 900 1110" width="900" height="1110">
<title>Minik Çiftçiler QR kodu: https://erzurum-bilim-merkezi.github.io/E-B-M/</title>
<rect width="900" height="1110" rx="48" fill="#FFFFFF"/>
<rect x="10" y="10" width="880" height="1090" rx="40" fill="none" stroke="#3FA34D" stroke-width="12"/>
<path d="M120 120h20v20h-20zM140 120h20v20h-20zM160 120h20v20h-20zM180 120h20v20h-20zM200 120h20v20h-20zM220 120h20v20h-20zM240 120h20v20h-20zM340 120h20v20h-20zM360 120h20v20h-20zM480 120h20v20h-20zM520 120h20v20h-20zM640 120h20v20h-20zM660 120h20v20h-20zM680 120h20v20h-20zM700 120h20v20h-20zM720 120h20v20h-20zM740 120h20v20h-20zM760 120h20v20h-20zM120 140h20v20h-20zM240 140h20v20h-20zM300 140h20v20h-20zM320 140h20v20h-20zM380 140h20v20h-20zM440 140h20v20h-20zM480 140h20v20h-20zM520 140h20v20h-20zM540 140h20v20h-20zM560 140h20v20h-20zM640 140h20v20h-20zM760 140h20v20h-20zM120 160h20v20h-20zM160 160h20v20h-20zM180 160h20v20h-20zM200 160h20v20h-20zM240 160h20v20h-20zM360 160h20v20h-20zM380 160h20v20h-20zM400 160h20v20h-20zM440 160h20v20h-20zM460 160h20v20h-20zM500 160h20v20h-20zM540 160h20v20h-20zM560 160h20v20h-20zM600 160h20v20h-20zM640 160h20v20h-20zM680 160h20v20h-20zM700 160h20v20h-20zM720 160h20v20h-20zM760 160h20v20h-20zM120 180h20v20h-20zM160 180h20v20h-20zM180 180h20v20h-20zM200 180h20v20h-20zM240 180h20v20h-20zM280 180h20v20h-20zM300 180h20v20h-20zM380 180h20v20h-20zM460 180h20v20h-20zM500 180h20v20h-20zM540 180h20v20h-20zM560 180h20v20h-20zM640 180h20v20h-20zM680 180h20v20h-20zM700 180h20v20h-20zM720 180h20v20h-20zM760 180h20v20h-20zM120 200h20v20h-20zM160 200h20v20h-20zM180 200h20v20h-20zM200 200h20v20h-20zM240 200h20v20h-20zM300 200h20v20h-20zM320 200h20v20h-20zM360 200h20v20h-20zM380 200h20v20h-20zM400 200h20v20h-20zM480 200h20v20h-20zM500 200h20v20h-20zM540 200h20v20h-20zM560 200h20v20h-20zM600 200h20v20h-20zM640 200h20v20h-20zM680 200h20v20h-20zM700 200h20v20h-20zM720 200h20v20h-20zM760 200h20v20h-20zM120 220h20v20h-20zM240 220h20v20h-20zM280 220h20v20h-20zM320 220h20v20h-20zM340 220h20v20h-20zM440 220h20v20h-20zM480 220h20v20h-20zM520 220h20v20h-20zM560 220h20v20h-20zM640 220h20v20h-20zM760 220h20v20h-20zM120 240h20v20h-20zM140 240h20v20h-20zM160 240h20v20h-20zM180 240h20v20h-20zM200 240h20v20h-20zM220 240h20v20h-20zM240 240h20v20h-20zM280 240h20v20h-20zM320 240h20v20h-20zM360 240h20v20h-20zM400 240h20v20h-20zM440 240h20v20h-20zM480 240h20v20h-20zM520 240h20v20h-20zM560 240h20v20h-20zM600 240h20v20h-20zM640 240h20v20h-20zM660 240h20v20h-20zM680 240h20v20h-20zM700 240h20v20h-20zM720 240h20v20h-20zM740 240h20v20h-20zM760 240h20v20h-20zM280 260h20v20h-20zM300 260h20v20h-20zM320 260h20v20h-20zM340 260h20v20h-20zM360 260h20v20h-20zM480 260h20v20h-20zM520 260h20v20h-20zM560 260h20v20h-20zM580 260h20v20h-20zM140 280h20v20h-20zM160 280h20v20h-20zM240 280h20v20h-20zM300 280h20v20h-20zM360 280h20v20h-20zM380 280h20v20h-20zM400 280h20v20h-20zM440 280h20v20h-20zM520 280h20v20h-20zM580 280h20v20h-20zM640 280h20v20h-20zM660 280h20v20h-20zM700 280h20v20h-20zM140 300h20v20h-20zM180 300h20v20h-20zM220 300h20v20h-20zM260 300h20v20h-20zM280 300h20v20h-20zM300 300h20v20h-20zM320 300h20v20h-20zM340 300h20v20h-20zM360 300h20v20h-20zM380 300h20v20h-20zM420 300h20v20h-20zM440 300h20v20h-20zM460 300h20v20h-20zM500 300h20v20h-20zM520 300h20v20h-20zM540 300h20v20h-20zM580 300h20v20h-20zM600 300h20v20h-20zM640 300h20v20h-20zM700 300h20v20h-20zM760 300h20v20h-20zM140 320h20v20h-20zM180 320h20v20h-20zM220 320h20v20h-20zM240 320h20v20h-20zM260 320h20v20h-20zM280 320h20v20h-20zM360 320h20v20h-20zM440 320h20v20h-20zM500 320h20v20h-20zM540 320h20v20h-20zM560 320h20v20h-20zM580 320h20v20h-20zM640 320h20v20h-20zM700 320h20v20h-20zM720 320h20v20h-20zM760 320h20v20h-20zM140 340h20v20h-20zM160 340h20v20h-20zM220 340h20v20h-20zM320 340h20v20h-20zM380 340h20v20h-20zM400 340h20v20h-20zM440 340h20v20h-20zM480 340h20v20h-20zM560 340h20v20h-20zM600 340h20v20h-20zM620 340h20v20h-20zM640 340h20v20h-20zM660 340h20v20h-20zM680 340h20v20h-20zM700 340h20v20h-20zM760 340h20v20h-20zM140 360h20v20h-20zM160 360h20v20h-20zM220 360h20v20h-20zM240 360h20v20h-20zM260 360h20v20h-20zM280 360h20v20h-20zM300 360h20v20h-20zM320 360h20v20h-20zM340 360h20v20h-20zM400 360h20v20h-20zM460 360h20v20h-20zM480 360h20v20h-20zM520 360h20v20h-20zM580 360h20v20h-20zM600 360h20v20h-20zM640 360h20v20h-20zM660 360h20v20h-20zM740 360h20v20h-20zM760 360h20v20h-20zM120 380h20v20h-20zM140 380h20v20h-20zM160 380h20v20h-20zM180 380h20v20h-20zM280 380h20v20h-20zM320 380h20v20h-20zM340 380h20v20h-20zM360 380h20v20h-20zM380 380h20v20h-20zM400 380h20v20h-20zM420 380h20v20h-20zM500 380h20v20h-20zM540 380h20v20h-20zM580 380h20v20h-20zM600 380h20v20h-20zM640 380h20v20h-20zM660 380h20v20h-20zM720 380h20v20h-20zM740 380h20v20h-20zM760 380h20v20h-20zM120 400h20v20h-20zM140 400h20v20h-20zM180 400h20v20h-20zM240 400h20v20h-20zM300 400h20v20h-20zM360 400h20v20h-20zM380 400h20v20h-20zM440 400h20v20h-20zM480 400h20v20h-20zM500 400h20v20h-20zM520 400h20v20h-20zM540 400h20v20h-20zM580 400h20v20h-20zM660 400h20v20h-20zM760 400h20v20h-20zM120 420h20v20h-20zM140 420h20v20h-20zM280 420h20v20h-20zM300 420h20v20h-20zM320 420h20v20h-20zM340 420h20v20h-20zM380 420h20v20h-20zM400 420h20v20h-20zM460 420h20v20h-20zM480 420h20v20h-20zM500 420h20v20h-20zM560 420h20v20h-20zM600 420h20v20h-20zM620 420h20v20h-20zM640 420h20v20h-20zM660 420h20v20h-20zM680 420h20v20h-20zM700 420h20v20h-20zM120 440h20v20h-20zM140 440h20v20h-20zM200 440h20v20h-20zM240 440h20v20h-20zM260 440h20v20h-20zM300 440h20v20h-20zM320 440h20v20h-20zM400 440h20v20h-20zM420 440h20v20h-20zM500 440h20v20h-20zM520 440h20v20h-20zM560 440h20v20h-20zM580 440h20v20h-20zM640 440h20v20h-20zM660 440h20v20h-20zM700 440h20v20h-20zM740 440h20v20h-20zM140 460h20v20h-20zM200 460h20v20h-20zM220 460h20v20h-20zM340 460h20v20h-20zM360 460h20v20h-20zM380 460h20v20h-20zM420 460h20v20h-20zM500 460h20v20h-20zM520 460h20v20h-20zM540 460h20v20h-20zM580 460h20v20h-20zM600 460h20v20h-20zM640 460h20v20h-20zM700 460h20v20h-20zM740 460h20v20h-20zM760 460h20v20h-20zM120 480h20v20h-20zM140 480h20v20h-20zM180 480h20v20h-20zM200 480h20v20h-20zM240 480h20v20h-20zM340 480h20v20h-20zM380 480h20v20h-20zM420 480h20v20h-20zM460 480h20v20h-20zM500 480h20v20h-20zM520 480h20v20h-20zM580 480h20v20h-20zM600 480h20v20h-20zM620 480h20v20h-20zM660 480h20v20h-20zM700 480h20v20h-20zM720 480h20v20h-20zM760 480h20v20h-20zM160 500h20v20h-20zM180 500h20v20h-20zM220 500h20v20h-20zM320 500h20v20h-20zM340 500h20v20h-20zM360 500h20v20h-20zM400 500h20v20h-20zM460 500h20v20h-20zM520 500h20v20h-20zM560 500h20v20h-20zM580 500h20v20h-20zM620 500h20v20h-20zM680 500h20v20h-20zM700 500h20v20h-20zM740 500h20v20h-20zM160 520h20v20h-20zM200 520h20v20h-20zM240 520h20v20h-20zM320 520h20v20h-20zM340 520h20v20h-20zM360 520h20v20h-20zM420 520h20v20h-20zM440 520h20v20h-20zM480 520h20v20h-20zM520 520h20v20h-20zM560 520h20v20h-20zM640 520h20v20h-20zM660 520h20v20h-20zM760 520h20v20h-20zM140 540h20v20h-20zM160 540h20v20h-20zM180 540h20v20h-20zM200 540h20v20h-20zM220 540h20v20h-20zM280 540h20v20h-20zM360 540h20v20h-20zM380 540h20v20h-20zM400 540h20v20h-20zM460 540h20v20h-20zM520 540h20v20h-20zM540 540h20v20h-20zM580 540h20v20h-20zM600 540h20v20h-20zM620 540h20v20h-20zM640 540h20v20h-20zM700 540h20v20h-20zM760 540h20v20h-20zM120 560h20v20h-20zM140 560h20v20h-20zM160 560h20v20h-20zM240 560h20v20h-20zM280 560h20v20h-20zM300 560h20v20h-20zM340 560h20v20h-20zM380 560h20v20h-20zM420 560h20v20h-20zM440 560h20v20h-20zM460 560h20v20h-20zM500 560h20v20h-20zM540 560h20v20h-20zM580 560h20v20h-20zM600 560h20v20h-20zM640 560h20v20h-20zM680 560h20v20h-20zM720 560h20v20h-20zM760 560h20v20h-20zM180 580h20v20h-20zM200 580h20v20h-20zM220 580h20v20h-20zM280 580h20v20h-20zM300 580h20v20h-20zM360 580h20v20h-20zM380 580h20v20h-20zM400 580h20v20h-20zM440 580h20v20h-20zM520 580h20v20h-20zM560 580h20v20h-20zM620 580h20v20h-20zM680 580h20v20h-20zM700 580h20v20h-20zM760 580h20v20h-20zM120 600h20v20h-20zM140 600h20v20h-20zM240 600h20v20h-20zM260 600h20v20h-20zM280 600h20v20h-20zM360 600h20v20h-20zM400 600h20v20h-20zM420 600h20v20h-20zM440 600h20v20h-20zM480 600h20v20h-20zM520 600h20v20h-20zM600 600h20v20h-20zM620 600h20v20h-20zM640 600h20v20h-20zM660 600h20v20h-20zM680 600h20v20h-20zM280 620h20v20h-20zM300 620h20v20h-20zM360 620h20v20h-20zM380 620h20v20h-20zM420 620h20v20h-20zM440 620h20v20h-20zM460 620h20v20h-20zM480 620h20v20h-20zM500 620h20v20h-20zM520 620h20v20h-20zM540 620h20v20h-20zM580 620h20v20h-20zM600 620h20v20h-20zM680 620h20v20h-20zM760 620h20v20h-20zM120 640h20v20h-20zM140 640h20v20h-20zM160 640h20v20h-20zM180 640h20v20h-20zM200 640h20v20h-20zM220 640h20v20h-20zM240 640h20v20h-20zM300 640h20v20h-20zM380 640h20v20h-20zM420 640h20v20h-20zM440 640h20v20h-20zM480 640h20v20h-20zM500 640h20v20h-20zM600 640h20v20h-20zM640 640h20v20h-20zM680 640h20v20h-20zM700 640h20v20h-20zM720 640h20v20h-20zM760 640h20v20h-20zM120 660h20v20h-20zM240 660h20v20h-20zM300 660h20v20h-20zM320 660h20v20h-20zM340 660h20v20h-20zM380 660h20v20h-20zM440 660h20v20h-20zM460 660h20v20h-20zM560 660h20v20h-20zM580 660h20v20h-20zM600 660h20v20h-20zM680 660h20v20h-20zM700 660h20v20h-20zM740 660h20v20h-20zM120 680h20v20h-20zM160 680h20v20h-20zM180 680h20v20h-20zM200 680h20v20h-20zM240 680h20v20h-20zM340 680h20v20h-20zM400 680h20v20h-20zM460 680h20v20h-20zM520 680h20v20h-20zM540 680h20v20h-20zM580 680h20v20h-20zM600 680h20v20h-20zM620 680h20v20h-20zM640 680h20v20h-20zM660 680h20v20h-20zM680 680h20v20h-20zM120 700h20v20h-20zM160 700h20v20h-20zM180 700h20v20h-20zM200 700h20v20h-20zM240 700h20v20h-20zM320 700h20v20h-20zM360 700h20v20h-20zM380 700h20v20h-20zM400 700h20v20h-20zM420 700h20v20h-20zM480 700h20v20h-20zM500 700h20v20h-20zM600 700h20v20h-20zM620 700h20v20h-20zM660 700h20v20h-20zM680 700h20v20h-20zM720 700h20v20h-20zM760 700h20v20h-20zM120 720h20v20h-20zM160 720h20v20h-20zM180 720h20v20h-20zM200 720h20v20h-20zM240 720h20v20h-20zM280 720h20v20h-20zM300 720h20v20h-20zM340 720h20v20h-20zM400 720h20v20h-20zM420 720h20v20h-20zM440 720h20v20h-20zM500 720h20v20h-20zM560 720h20v20h-20zM580 720h20v20h-20zM600 720h20v20h-20zM660 720h20v20h-20zM680 720h20v20h-20zM700 720h20v20h-20zM740 720h20v20h-20zM760 720h20v20h-20zM120 740h20v20h-20zM240 740h20v20h-20zM280 740h20v20h-20zM320 740h20v20h-20zM340 740h20v20h-20zM400 740h20v20h-20zM520 740h20v20h-20zM600 740h20v20h-20zM620 740h20v20h-20zM660 740h20v20h-20zM680 740h20v20h-20zM700 740h20v20h-20zM120 760h20v20h-20zM140 760h20v20h-20zM160 760h20v20h-20zM180 760h20v20h-20zM200 760h20v20h-20zM220 760h20v20h-20zM240 760h20v20h-20zM300 760h20v20h-20zM340 760h20v20h-20zM360 760h20v20h-20zM380 760h20v20h-20zM420 760h20v20h-20zM500 760h20v20h-20zM520 760h20v20h-20zM600 760h20v20h-20zM620 760h20v20h-20zM640 760h20v20h-20zM660 760h20v20h-20zM680 760h20v20h-20zM700 760h20v20h-20zM760 760h20v20h-20z" fill="#000000"/>
<text x="450" y="938" text-anchor="middle" font-family="'Segoe UI',Roboto,'Helvetica Neue',Arial,sans-serif" font-weight="800" font-size="76" fill="#2A7A39">🥬 Minik Çiftçiler</text>
<text x="450" y="1008" text-anchor="middle" font-family="'Segoe UI',Roboto,'Helvetica Neue',Arial,sans-serif" font-weight="700" font-size="48" fill="#1F2A22">Okut, keşfe başla!</text>
<text x="450" y="1064" text-anchor="middle" font-family="'Segoe UI',Roboto,'Helvetica Neue',Arial,sans-serif" font-weight="600" font-size="32" fill="#5A6E5E">Erzurum Bilim Merkezi</text>
</svg>
